# xmcd
#
# Track frame offsets: 
#        150
#        16545
#        29954
#        43722
#        56460
#        68972
#        80974
#        89505
#        105922
#        122681
#        138061
#        153664
#
# Disc length: 2157 seconds
#
# Revision: 2
# Processed by: cddbd v1.5.1PL2 Copyright (c) Steve Scherf et al.
# Submitted via: ExactAudioCopy v0.95b3
#
DISCID=9c086b0c
DTITLE=Various Artist - How Great Thou Art [CD1]
DYEAR=2001
DGENRE=Gospel
TTITLE0=Tammy Wynette - How Great Thou Art
TTITLE1=Ray Price - The Old Rugged Cross
TTITLE2=George Jones - Release Me (From My Sin)
TTITLE3=Patsy Cline - Just A Closer Walk With Thee
TTITLE4=Jimmy Dean - In The Garden
TTITLE5=Jim Nabors - The Lord's Prayer
TTITLE6=Johnny Cash - Swing Low, Sweet Chariot
TTITLE7=Andy Griffith - Somebody Bigger Than You And I
TTITLE8=Patti Page - What A Friend We Have In Jesus
TTITLE9=Mickey Gilley - I'll Fly Away
TTITLE10=Andy Williams - Amazing Grace
TTITLE11=The Statler Brothers - This Ole House
EXTD=
EXTT0=
EXTT1=
EXTT2=
EXTT3=
EXTT4=
EXTT5=
EXTT6=
EXTT7=
EXTT8=
EXTT9=
EXTT10=
EXTT11=
PLAYORDER=
